PathFileType	4	(X/Y/Z)	E:\Qualisys_Data\Carbon_Farble_Plate\Data\Amateur_Runner\S1\T3\S1T3V21_c3d.trc
DataRate	CameraRate	NumFrames	NumMarkers	Units	OrigDataRate	OrigDataStartFrame	OrigNumFrames
200.000000	200.000000	5	39	mm	200.000000	111	298
Frame#	Time	LSHO			RSHO			LICST			RICST			LASIS			LHEEL			RASIS			LTROC			RTROC			SACR			LTH1			LSK4			LTH2			LTH3			RHM5			LSK2			LTH4			RTH1			LTOE			RTH2			RTH3			RTH4			LLEP			RLEP			LSK1			LSK3			RSK1			LHM5			RSK2			LFT1			RSK3			RSK4			LLME			RLME			RTOE			RHEEL			RFT1			RFT2			LFT2			
		X1	Y1	Z1	X2	Y2	Z2	X3	Y3	Z3	X4	Y4	Z4	X5	Y5	Z5	X6	Y6	Z6	X7	Y7	Z7	X8	Y8	Z8	X9	Y9	Z9	X10	Y10	Z10	X11	Y11	Z11	X12	Y12	Z12	X13	Y13	Z13	X14	Y14	Z14	X15	Y15	Z15	X16	Y16	Z16	X17	Y17	Z17	X18	Y18	Z18	X19	Y19	Z19	X20	Y20	Z20	X21	Y21	Z21	X22	Y22	Z22	X23	Y23	Z23	X24	Y24	Z24	X25	Y25	Z25	X26	Y26	Z26	X27	Y27	Z27	X28	Y28	Z28	X29	Y29	Z29	X30	Y30	Z30	X31	Y31	Z31	X32	Y32	Z32	X33	Y33	Z33	X34	Y34	Z34	X35	Y35	Z35	X36	Y36	Z36	X37	Y37	Z37	X38	Y38	Z38	X39	Y39	Z39	

112	0.555	-657.2156372070312	1458.248657226562	-579.5167236328125	-693.5993041992188	1483.278930664062	-248.4458923339844	-719.7286376953125	1012.197814941406	-528.9007568359375	-720.8778076171875	1028.156127929688	-226.2944793701172	-674.970947265625	974.945068359375	-501.4131774902344	-1047.951904296875	118.1489791870117	-396.501953125	-678.3507080078125	983.3282470703124	-235.5482788085938	-789.5240478515625	893.5236206054688	-543.4002075195312	-777.5274047851562	884.9110107421875	-206.2556915283203	-838.1690063476562	1034.16455078125	-374.212646484375	-669.5205688476562	734.2135620117188	-519.9954223632812	-950.8450927734376	263.0013427734375	-439.322998046875	-751.4013671875	730.3772583007812	-542.9522705078125	-673.1013793945312	631.8265991210938	-500.291015625	-796.0850219726562	225.5241088867188	-211.7359466552734	-890.6432495117188	336.3951416015625	-481.9631958007812	-757.8058471679688	633.5079345703125	-515.6283569335938	-600.7061157226562	829.037353515625	-220.1893005371094	-803.7811889648438	62.50225448608398	-404.26123046875	-662.2723999023438	782.1578369140625	-195.8784942626953	-539.6265869140625	747.4564819335938	-220.0990447998047	-605.085205078125	699.8026733398438	-204.4868621826172	-734.4273681640625	482.7123413085938	-472.1128234863281	-497.1347045898438	575.3623657226562	-238.9298095703125	-824.9218139648438	288.3097534179688	-461.0425720214844	-889.6990356445312	210.9101715087891	-451.912841796875	-633.9786987304688	460.9998779296875	-228.0268707275391	-876.304931640625	60.33578109741211	-468.2279663085938	-679.6726684570312	527.5628051757812	-243.9080963134766	-1044.2900390625	87.97587585449219	-367.3353271484375	-715.1260986328125	401.7935791015625	-241.4742736816406	-757.9170532226562	466.7566223144531	-265.2781982421875	-982.1435546875	134.0558929443359	-445.0673828125	-840.119140625	360.0438232421875	-243.3522033691406	-747.7982177734375	185.5506896972656	-276.8578796386719	-915.7802734375	374.4433288574219	-296.0118713378906	-926.883544921875	345.4324340820312	-321.8760070800781	-932.0146484375	358.0079956054688	-271.5975952148438	-1050.067260742188	87.4092025756836	-420.6175842285156
113	0.56	-634.9744262695312	1462.357666015625	-578.0086669921875	-676.1847534179688	1486.664184570312	-247.7801971435547	-696.7597045898438	1013.877014160156	-528.8041381835938	-700.744140625	1032.211547851562	-227.1177215576172	-653.1139526367188	976.2063598632812	-500.8493347167969	-1045.024658203125	123.9445190429688	-396.6490173339844	-658.7102661132812	987.2307739257812	-235.0717163085938	-768.888427734375	895.192626953125	-543.530517578125	-756.8699951171875	889.3179321289062	-205.9542083740234	-817.3128662109375	1037.4208984375	-376.0356750488281	-652.1527099609375	734.1023559570312	-517.1066284179688	-945.7379760742188	268.3752746582031	-438.4066162109375	-734.2507934570312	732.7509155273438	-542.135009765625	-659.3709106445312	632.3109741210938	-497.5263671875	-754.3831176757812	219.1766815185547	-212.3110809326172	-885.2890625	341.2850036621094	-480.9260864257812	-743.9984741210938	636.1492309570312	-514.70556640625	-579.8611450195312	835.1401977539062	-220.3909149169922	-802.6887817382812	62.28014373779297	-404.1421203613281	-640.7505493164062	787.408447265625	-196.2568054199219	-517.2700805664062	754.6612548828125	-220.5877380371094	-582.0386352539062	706.1005859375	-205.4816436767578	-726.111328125	484.9288635253906	-470.9856872558594	-471.9581909179688	582.940185546875	-239.5107879638672	-820.2542724609375	292.1932678222656	-460.7975158691406	-885.5454711914062	215.8305511474609	-451.8366088867188	-603.9840087890625	461.7848205566406	-228.6017913818359	-874.7356567382812	61.48149871826172	-468.1458740234375	-653.2379150390625	526.5309448242188	-244.2058868408203	-1041.83056640625	93.62277221679688	-367.8320617675781	-682.1968994140625	398.6181945800781	-242.3027954101562	-728.2296752929688	461.4748840332031	-265.7541198730469	-978.8060302734376	139.4542999267578	-444.8829040527344	-805.3169555664062	351.1010131835938	-243.4111175537109	-703.88427734375	182.0197448730469	-277.5443420410156	-879.5712280273438	361.8253784179688	-294.7301025390625	-890.9561767578125	331.5655517578125	-321.6340026855469	-897.1450805664062	344.55029296875	-271.6676025390625	-1048.913696289062	91.48727416992188	-418.9388427734375
114	0.565	-612.4481201171875	1466.69580078125	-576.7936401367188	-658.1881713867188	1490.25244140625	-246.9273681640625	-674.6072387695312	1016.024780273438	-529.2736206054688	-679.4714965820312	1037.12158203125	-226.7210540771484	-631.2273559570312	977.9817504882812	-500.8096313476562	-1041.391479492188	130.7821350097656	-397.1617126464844	-638.198486328125	991.2047119140624	-234.7983551025391	-748.3113403320312	898.0186767578125	-543.262939453125	-735.7362060546875	893.8988647460938	-204.9648742675781	-795.9053955078125	1040.676513671875	-377.0902404785156	-634.87451171875	734.953857421875	-514.0411376953125	-940.3558959960938	274.052734375	-437.3407287597656	-716.5160522460938	735.3919677734375	-541.1102905273438	-645.25244140625	633.327880859375	-494.9981384277344	-712.6226196289062	213.1779022216797	-212.2032470703125	-879.5234985351562	347.0641479492188	-479.5880432128906	-729.1127319335938	639.2975463867188	-514.2081909179688	-558.70263671875	841.519775390625	-220.7396697998047	-801.6548461914062	62.15000915527344	-404.0495910644531	-618.4603881835938	792.9193725585938	-196.1071319580078	-495.2178955078125	761.4467163085938	-221.3043060302734	-559.2318115234375	712.1594848632812	-206.3090667724609	-717.3441772460938	487.6847839355469	-470.1293640136719	-447.4718322753906	590.3675537109375	-239.9922180175781	-814.2622680664062	296.6727600097656	-461.2086791992188	-880.7791137695312	220.8278656005859	-452.405517578125	-574.6177978515625	462.9201049804688	-229.1272735595703	-873.0947875976562	62.42312240600586	-468.2991943359375	-626.6909790039062	525.2994384765625	-244.3380584716797	-1038.74560546875	100.6417007446289	-368.3652648925781	-649.0382690429688	396.4078979492188	-241.0117797851562	-698.7183837890625	456.4310607910156	-266.0218505859375	-974.7955932617188	145.5730438232422	-445.2904663085938	-769.9476928710938	341.7835693359375	-243.2127838134766	-660.5210571289062	178.3372955322266	-277.6134643554688	-844.8442993164062	349.2337646484375	-294.4847106933594	-855.0863647460938	318.7770690917969	-321.5884094238281	-861.6517333984375	331.2361755371094	-271.3847961425781	-1045.72705078125	97.86992645263672	-419.2171630859375
115	0.57	-590.0392456054688	1471.149536132812	-575.2352294921875	-640.2131958007812	1493.878540039062	-246.6770935058594	-652.4827270507812	1018.950988769531	-529.4578247070312	-658.378173828125	1041.207275390625	-228.6535186767578	-610.7249755859375	979.5221557617188	-499.5099792480469	-1036.93994140625	138.0166931152344	-398.0589599609375	-617.5819702148438	995.2505493164062	-235.0637969970703	-727.3784790039062	900.7913208007812	-543.0322875976562	-714.1406860351562	898.3606567382812	-204.9076995849609	-773.9296264648438	1043.678588867188	-377.76904296875	-618.0031127929688	736.1089477539062	-510.854736328125	-933.890869140625	280.1606140136719	-436.7228698730469	-698.3683471679688	738.6968383789062	-540.2889404296875	-631.15234375	634.4118041992188	-491.5708312988281	-670.5069580078125	207.2541351318359	-212.3836212158203	-873.1427001953125	353.0732116699219	-478.6974182128906	-713.95458984375	643.1250610351562	-513.2247924804688	-537.193115234375	847.4180297851562	-221.1402435302734	-800.2232666015625	61.9102897644043	-403.8914184570312	-596.4117431640625	798.0640869140625	-196.5634155273438	-472.8153381347656	768.3887939453125	-222.2639617919922	-536.411376953125	718.1044311523438	-206.9896545410156	-707.9330444335938	491.5418701171875	-469.4507751464844	-423.3615112304688	597.2801513671875	-240.4822235107422	-808.8350830078125	302.1170043945312	-461.6341857910156	-875.8943481445312	226.9148406982422	-452.900634765625	-545.1001586914062	463.7258911132812	-229.2710418701172	-871.0849609375	63.42601013183594	-468.1192626953125	-600.5033569335938	523.39794921875	-244.6941223144531	-1035.328002929688	107.7169799804688	-368.5829162597656	-615.7975463867188	392.8939819335938	-241.1564483642578	-668.630859375	450.9594421386719	-265.91455078125	-969.7318115234376	152.3988342285156	-445.8085021972656	-734.5458984375	332.961669921875	-243.0153350830078	-616.8822021484375	175.5152587890625	-277.9449768066406	-810.2406005859375	336.3332824707031	-293.6620788574219	-814.0750732421875	306.7977600097656	-322.2335510253906	-825.3313598632812	317.4891662597656	-271.1417236328125	-1042.276977539062	104.8924102783203	-419.662109375
116	0.575	-567.5261840820312	1475.498046875	-573.5963745117188	-622.3790893554688	1497.638427734375	-246.1253967285156	-629.90087890625	1020.360900878906	-529.6297607421875	-637.7474365234375	1045.184326171875	-229.0148468017578	-588.1341552734375	980.9828491210938	-499.313232421875	-1032.332885742188	145.1161193847656	-398.989501953125	-596.0176391601562	999.6124267578124	-236.0319519042969	-706.0631103515625	904.1217041015624	-542.5694580078125	-692.0172729492188	903.158203125	-203.9722595214844	-752.3521728515625	1047.617065429688	-378.7398681640625	-600.1087036132812	738.1011352539062	-508.3890686035156	-927.1290283203124	287.3728637695312	-436.4570007324219	-680.3224487304688	741.7741088867188	-539.1846923828125	-616.249755859375	637.0564575195312	-488.8514404296875	-628.1686401367188	201.4348907470703	-212.2938385009766	-865.6759643554688	359.5183715820312	-477.416259765625	-698.8637084960938	646.7611083984375	-511.7832946777344	-515.4216918945312	853.3501586914062	-222.0480804443359	-798.696044921875	61.75685501098633	-404.4028625488281	-574.48974609375	803.4188232421875	-197.7715911865234	-450.1923828125	775.1587524414062	-222.9796752929688	-513.3895263671875	724.6046142578125	-207.8539886474609	-697.5113525390625	495.3219604492188	-469.240478515625	-400.1385498046875	603.6231079101562	-241.2212066650391	-801.831298828125	308.07861328125	-462.1959228515625	-869.7986450195312	233.7675933837891	-454.1256408691406	-515.8899536132812	464.0383605957031	-229.4741821289062	-870.9464721679688	64.26390838623047	-467.5674438476562	-574.5904541015625	521.0820922851562	-244.6003570556641	-1031.433959960938	115.2357482910156	-369.6011352539062	-583.1451416015625	390.364013671875	-240.4426116943359	-638.7225341796875	445.4113159179688	-266.2539672851562	-964.5203247070312	159.1903533935547	-445.750244140625	-698.99951171875	324.6092529296875	-242.7444610595703	-573.130126953125	172.5296173095703	-278.2510070800781	-775.4456176757812	322.4444274902344	-293.790283203125	-779.4195556640625	291.5861511230469	-321.1724243164062	-788.5474853515625	303.54150390625	-270.2764587402344	-1038.6630859375	112.4830703735352	-420.3168029785156
